<svg width="1440" height="233" viewBox="0 0 1440 233" fill="none" xmlns="http://www.w3.org/2000/svg">
<rect width="1440" height="233" fill="#1E1E1E"/>
<g id="filmstrip">
<path id="film-back" fill-rule="evenodd" clip-rule="evenodd" d="M1440 37H1374C1366.27 37 1360 43.268 1360 51V183C1360 190.732 1366.27 197 1374 197H1440V206.214C1439.63 206.075 1439.23 206 1438.81 206H1432.4C1430.52 206 1429 207.523 1429 209.4V221.23C1429 223.108 1430.52 224.63 1432.4 224.63H1438.81C1439.23 224.63 1439.63 224.554 1440 224.415V233H0V221.23C0.000253867 223.108 1.52278 224.63 3.40039 224.63H9.80957C11.6872 224.63 13.2097 223.108 13.21 221.23V209.4C13.21 207.523 11.6873 206 9.80957 206H3.40039C1.52262 206 0 207.523 0 209.4V197H66C73.732 197 80 190.732 80 183V51C80 43.268 73.732 37 66 37H0V24.2305C0.000253867 26.108 1.52278 27.6299 3.40039 27.6299H9.80957C11.6872 27.6299 13.2097 26.108 13.21 24.2305V12.4004C13.21 10.5226 11.6873 9 9.80957 9H3.40039C1.52262 9 0 10.5226 0 12.4004V0H1440V37ZM34.4004 206C32.5226 206 31 207.523 31 209.4V221.23C31.0003 223.108 32.5228 224.63 34.4004 224.63H40.8096C42.6872 224.63 44.2097 223.108 44.21 221.23V209.4C44.21 207.523 42.6873 206 40.8096 206H34.4004ZM65.4004 206C63.5226 206 62 207.523 62 209.4V221.23C62.0003 223.108 63.5228 224.63 65.4004 224.63H71.8096C73.6872 224.63 75.2097 223.108 75.21 221.23V209.4C75.21 207.523 73.6873 206 71.8096 206H65.4004ZM101.4 206C99.5226 206 98 207.523 98 209.4V221.23C98.0003 223.108 99.5228 224.63 101.4 224.63H107.81C109.687 224.63 111.21 223.108 111.21 221.23V209.4C111.21 207.523 109.687 206 107.81 206H101.4ZM132.4 206C130.523 206 129 207.523 129 209.4V221.23C129 223.108 130.523 224.63 132.4 224.63H138.81C140.687 224.63 142.21 223.108 142.21 221.23V209.4C142.21 207.523 140.687 206 138.81 206H132.4ZM163.4 206C161.523 206 160 207.523 160 209.4V221.23C160 223.108 161.523 224.63 163.4 224.63H169.81C171.687 224.63 173.21 223.108 173.21 221.23V209.4C173.21 207.523 171.687 206 169.81 206H163.4ZM194.4 206C192.523 206 191 207.523 191 209.4V221.23C191 223.108 192.523 224.63 194.4 224.63H200.81C202.687 224.63 204.21 223.108 204.21 221.23V209.4C204.21 207.523 202.687 206 200.81 206H194.4ZM225.4 206C223.523 206 222 207.523 222 209.4V221.23C222 223.108 223.523 224.63 225.4 224.63H231.81C233.687 224.63 235.21 223.108 235.21 221.23V209.4C235.21 207.523 233.687 206 231.81 206H225.4ZM256.4 206C254.523 206 253 207.523 253 209.4V221.23C253 223.108 254.523 224.63 256.4 224.63H262.81C264.687 224.63 266.21 223.108 266.21 221.23V209.4C266.21 207.523 264.687 206 262.81 206H256.4ZM287.4 206C285.523 206 284 207.523 284 209.4V221.23C284 223.108 285.523 224.63 287.4 224.63H293.81C295.687 224.63 297.21 223.108 297.21 221.23V209.4C297.21 207.523 295.687 206 293.81 206H287.4ZM318.4 206C316.523 206 315 207.523 315 209.4V221.23C315 223.108 316.523 224.63 318.4 224.63H324.81C326.687 224.63 328.21 223.108 328.21 221.23V209.4C328.21 207.523 326.687 206 324.81 206H318.4ZM354.4 206C352.523 206 351 207.523 351 209.4V221.23C351 223.108 352.523 224.63 354.4 224.63H360.81C362.687 224.63 364.21 223.108 364.21 221.23V209.4C364.21 207.523 362.687 206 360.81 206H354.4ZM385.4 206C383.523 206 382 207.523 382 209.4V221.23C382 223.108 383.523 224.63 385.4 224.63H391.81C393.687 224.63 395.21 223.108 395.21 221.23V209.4C395.21 207.523 393.687 206 391.81 206H385.4ZM416.4 206C414.523 206 413 207.523 413 209.4V221.23C413 223.108 414.523 224.63 416.4 224.63H422.81C424.687 224.63 426.21 223.108 426.21 221.23V209.4C426.21 207.523 424.687 206 422.81 206H416.4ZM447.4 206C445.523 206 444 207.523 444 209.4V221.23C444 223.108 445.523 224.63 447.4 224.63H453.81C455.687 224.63 457.21 223.108 457.21 221.23V209.4C457.21 207.523 455.687 206 453.81 206H447.4ZM478.4 206C476.523 206 475 207.523 475 209.4V221.23C475 223.108 476.523 224.63 478.4 224.63H484.81C486.687 224.63 488.21 223.108 488.21 221.23V209.4C488.21 207.523 486.687 206 484.81 206H478.4ZM509.4 206C507.523 206 506 207.523 506 209.4V221.23C506 223.108 507.523 224.63 509.4 224.63H515.81C517.687 224.63 519.21 223.108 519.21 221.23V209.4C519.21 207.523 517.687 206 515.81 206H509.4ZM540.4 206C538.523 206 537 207.523 537 209.4V221.23C537 223.108 538.523 224.63 540.4 224.63H546.81C548.687 224.63 550.21 223.108 550.21 221.23V209.4C550.21 207.523 548.687 206 546.81 206H540.4ZM571.4 206C569.523 206 568 207.523 568 209.4V221.23C568 223.108 569.523 224.63 571.4 224.63H577.81C579.687 224.63 581.21 223.108 581.21 221.23V209.4C581.21 207.523 579.687 206 577.81 206H571.4ZM608.4 206C606.523 206 605 207.523 605 209.4V221.23C605 223.108 606.523 224.63 608.4 224.63H614.81C616.687 224.63 618.21 223.108 618.21 221.23V209.4C618.21 207.523 616.687 206 614.81 206H608.4ZM639.4 206C637.523 206 636 207.523 636 209.4V221.23C636 223.108 637.523 224.63 639.4 224.63H645.81C647.687 224.63 649.21 223.108 649.21 221.23V209.4C649.21 207.523 647.687 206 645.81 206H639.4ZM670.4 206C668.523 206 667 207.523 667 209.4V221.23C667 223.108 668.523 224.63 670.4 224.63H676.81C678.687 224.63 680.21 223.108 680.21 221.23V209.4C680.21 207.523 678.687 206 676.81 206H670.4ZM701.4 206C699.523 206 698 207.523 698 209.4V221.23C698 223.108 699.523 224.63 701.4 224.63H707.81C709.687 224.63 711.21 223.108 711.21 221.23V209.4C711.21 207.523 709.687 206 707.81 206H701.4ZM732.4 206C730.523 206 729 207.523 729 209.4V221.23C729 223.108 730.523 224.63 732.4 224.63H738.81C740.687 224.63 742.21 223.108 742.21 221.23V209.4C742.21 207.523 740.687 206 738.81 206H732.4ZM763.4 206C761.523 206 760 207.523 760 209.4V221.23C760 223.108 761.523 224.63 763.4 224.63H769.81C771.687 224.63 773.21 223.108 773.21 221.23V209.4C773.21 207.523 771.687 206 769.81 206H763.4ZM794.4 206C792.523 206 791 207.523 791 209.4V221.23C791 223.108 792.523 224.63 794.4 224.63H800.81C802.687 224.63 804.21 223.108 804.21 221.23V209.4C804.21 207.523 802.687 206 800.81 206H794.4ZM825.4 206C823.523 206 822 207.523 822 209.4V221.23C822 223.108 823.523 224.63 825.4 224.63H831.81C833.687 224.63 835.21 223.108 835.21 221.23V209.4C835.21 207.523 833.687 206 831.81 206H825.4ZM862.4 206C860.523 206 859 207.523 859 209.4V221.23C859 223.108 860.523 224.63 862.4 224.63H868.81C870.687 224.63 872.21 223.108 872.21 221.23V209.4C872.21 207.523 870.687 206 868.81 206H862.4ZM893.4 206C891.523 206 890 207.523 890 209.4V221.23C890 223.108 891.523 224.63 893.4 224.63H899.81C901.687 224.63 903.21 223.108 903.21 221.23V209.4C903.21 207.523 901.687 206 899.81 206H893.4ZM924.4 206C922.523 206 921 207.523 921 209.4V221.23C921 223.108 922.523 224.63 924.4 224.63H930.81C932.687 224.63 934.21 223.108 934.21 221.23V209.4C934.21 207.523 932.687 206 930.81 206H924.4ZM955.4 206C953.523 206 952 207.523 952 209.4V221.23C952 223.108 953.523 224.63 955.4 224.63H961.81C963.687 224.63 965.21 223.108 965.21 221.23V209.4C965.21 207.523 963.687 206 961.81 206H955.4ZM986.4 206C984.523 206 983 207.523 983 209.4V221.23C983 223.108 984.523 224.63 986.4 224.63H992.81C994.687 224.63 996.21 223.108 996.21 221.23V209.4C996.21 207.523 994.687 206 992.81 206H986.4ZM1017.4 206C1015.52 206 1014 207.523 1014 209.4V221.23C1014 223.108 1015.52 224.63 1017.4 224.63H1023.81C1025.69 224.63 1027.21 223.108 1027.21 221.23V209.4C1027.21 207.523 1025.69 206 1023.81 206H1017.4ZM1048.4 206C1046.52 206 1045 207.523 1045 209.4V221.23C1045 223.108 1046.52 224.63 1048.4 224.63H1054.81C1056.69 224.63 1058.21 223.108 1058.21 221.23V209.4C1058.21 207.523 1056.69 206 1054.81 206H1048.4ZM1079.4 206C1077.52 206 1076 207.523 1076 209.4V221.23C1076 223.108 1077.52 224.63 1079.4 224.63H1085.81C1087.69 224.63 1089.21 223.108 1089.21 221.23V209.4C1089.21 207.523 1087.69 206 1085.81 206H1079.4ZM1116.4 206C1114.52 206 1113 207.523 1113 209.4V221.23C1113 223.108 1114.52 224.63 1116.4 224.63H1122.81C1124.69 224.63 1126.21 223.108 1126.21 221.23V209.4C1126.21 207.523 1124.69 206 1122.81 206H1116.4ZM1147.4 206C1145.52 206 1144 207.523 1144 209.4V221.23C1144 223.108 1145.52 224.63 1147.4 224.63H1153.81C1155.69 224.63 1157.21 223.108 1157.21 221.23V209.4C1157.21 207.523 1155.69 206 1153.81 206H1147.4ZM1178.4 206C1176.52 206 1175 207.523 1175 209.4V221.23C1175 223.108 1176.52 224.63 1178.4 224.63H1184.81C1186.69 224.63 1188.21 223.108 1188.21 221.23V209.4C1188.21 207.523 1186.69 206 1184.81 206H1178.4ZM1209.4 206C1207.52 206 1206 207.523 1206 209.4V221.23C1206 223.108 1207.52 224.63 1209.4 224.63H1215.81C1217.69 224.63 1219.21 223.108 1219.21 221.23V209.4C1219.21 207.523 1217.69 206 1215.81 206H1209.4ZM1240.4 206C1238.52 206 1237 207.523 1237 209.4V221.23C1237 223.108 1238.52 224.63 1240.4 224.63H1246.81C1248.69 224.63 1250.21 223.108 1250.21 221.23V209.4C1250.21 207.523 1248.69 206 1246.81 206H1240.4ZM1271.4 206C1269.52 206 1268 207.523 1268 209.4V221.23C1268 223.108 1269.52 224.63 1271.4 224.63H1277.81C1279.69 224.63 1281.21 223.108 1281.21 221.23V209.4C1281.21 207.523 1279.69 206 1277.81 206H1271.4ZM1302.4 206C1300.52 206 1299 207.523 1299 209.4V221.23C1299 223.108 1300.52 224.63 1302.4 224.63H1308.81C1310.69 224.63 1312.21 223.108 1312.21 221.23V209.4C1312.21 207.523 1310.69 206 1308.81 206H1302.4ZM1333.4 206C1331.52 206 1330 207.523 1330 209.4V221.23C1330 223.108 1331.52 224.63 1333.4 224.63H1339.81C1341.69 224.63 1343.21 223.108 1343.21 221.23V209.4C1343.21 207.523 1341.69 206 1339.81 206H1333.4ZM1370.4 206C1368.52 206 1367 207.523 1367 209.4V221.23C1367 223.108 1368.52 224.63 1370.4 224.63H1376.81C1378.69 224.63 1380.21 223.108 1380.21 221.23V209.4C1380.21 207.523 1378.69 206 1376.81 206H1370.4ZM1401.4 206C1399.52 206 1398 207.523 1398 209.4V221.23C1398 223.108 1399.52 224.63 1401.4 224.63H1407.81C1409.69 224.63 1411.21 223.108 1411.21 221.23V209.4C1411.21 207.523 1409.69 206 1407.81 206H1401.4ZM34.4004 9C32.5226 9 31 10.5226 31 12.4004V24.2305C31.0003 26.108 32.5228 27.6299 34.4004 27.6299H40.8096C42.6872 27.6299 44.2097 26.108 44.21 24.2305V12.4004C44.21 10.5226 42.6873 9 40.8096 9H34.4004ZM65.4004 9C63.5226 9 62 10.5226 62 12.4004V24.2305C62.0003 26.108 63.5228 27.6299 65.4004 27.6299H71.8096C73.6872 27.6299 75.2097 26.108 75.21 24.2305V12.4004C75.21 10.5226 73.6873 9 71.8096 9H65.4004ZM101.4 9C99.5226 9 98 10.5226 98 12.4004V24.2305C98.0003 26.108 99.5228 27.6299 101.4 27.6299H107.81C109.687 27.6299 111.21 26.108 111.21 24.2305V12.4004C111.21 10.5226 109.687 9 107.81 9H101.4ZM132.4 9C130.523 9 129 10.5226 129 12.4004V24.2305C129 26.108 130.523 27.6299 132.4 27.6299H138.81C140.687 27.6299 142.21 26.108 142.21 24.2305V12.4004C142.21 10.5226 140.687 9 138.81 9H132.4ZM163.4 9C161.523 9 160 10.5226 160 12.4004V24.2305C160 26.108 161.523 27.6299 163.4 27.6299H169.81C171.687 27.6299 173.21 26.108 173.21 24.2305V12.4004C173.21 10.5226 171.687 9 169.81 9H163.4ZM194.4 9C192.523 9 191 10.5226 191 12.4004V24.2305C191 26.108 192.523 27.6299 194.4 27.6299H200.81C202.687 27.6299 204.21 26.108 204.21 24.2305V12.4004C204.21 10.5226 202.687 9 200.81 9H194.4ZM225.4 9C223.523 9 222 10.5226 222 12.4004V24.2305C222 26.108 223.523 27.6299 225.4 27.6299H231.81C233.687 27.6299 235.21 26.108 235.21 24.2305V12.4004C235.21 10.5226 233.687 9 231.81 9H225.4ZM256.4 9C254.523 9 253 10.5226 253 12.4004V24.2305C253 26.108 254.523 27.6299 256.4 27.6299H262.81C264.687 27.6299 266.21 26.108 266.21 24.2305V12.4004C266.21 10.5226 264.687 9 262.81 9H256.4ZM287.4 9C285.523 9 284 10.5226 284 12.4004V24.2305C284 26.108 285.523 27.6299 287.4 27.6299H293.81C295.687 27.6299 297.21 26.108 297.21 24.2305V12.4004C297.21 10.5226 295.687 9 293.81 9H287.4ZM318.4 9C316.523 9 315 10.5226 315 12.4004V24.2305C315 26.108 316.523 27.6299 318.4 27.6299H324.81C326.687 27.6299 328.21 26.108 328.21 24.2305V12.4004C328.21 10.5226 326.687 9 324.81 9H318.4ZM354.4 9C352.523 9 351 10.5226 351 12.4004V24.2305C351 26.108 352.523 27.6299 354.4 27.6299H360.81C362.687 27.6299 364.21 26.108 364.21 24.2305V12.4004C364.21 10.5226 362.687 9 360.81 9H354.4ZM385.4 9C383.523 9 382 10.5226 382 12.4004V24.2305C382 26.108 383.523 27.6299 385.4 27.6299H391.81C393.687 27.6299 395.21 26.108 395.21 24.2305V12.4004C395.21 10.5226 393.687 9 391.81 9H385.4ZM416.4 9C414.523 9 413 10.5226 413 12.4004V24.2305C413 26.108 414.523 27.6299 416.4 27.6299H422.81C424.687 27.6299 426.21 26.108 426.21 24.2305V12.4004C426.21 10.5226 424.687 9 422.81 9H416.4ZM447.4 9C445.523 9 444 10.5226 444 12.4004V24.2305C444 26.108 445.523 27.6299 447.4 27.6299H453.81C455.687 27.6299 457.21 26.108 457.21 24.2305V12.4004C457.21 10.5226 455.687 9 453.81 9H447.4ZM478.4 9C476.523 9 475 10.5226 475 12.4004V24.2305C475 26.108 476.523 27.6299 478.4 27.6299H484.81C486.687 27.6299 488.21 26.108 488.21 24.2305V12.4004C488.21 10.5226 486.687 9 484.81 9H478.4ZM509.4 9C507.523 9 506 10.5226 506 12.4004V24.2305C506 26.108 507.523 27.6299 509.4 27.6299H515.81C517.687 27.6299 519.21 26.108 519.21 24.2305V12.4004C519.21 10.5226 517.687 9 515.81 9H509.4ZM540.4 9C538.523 9 537 10.5226 537 12.4004V24.2305C537 26.108 538.523 27.6299 540.4 27.6299H546.81C548.687 27.6299 550.21 26.108 550.21 24.2305V12.4004C550.21 10.5226 548.687 9 546.81 9H540.4ZM571.4 9C569.523 9 568 10.5226 568 12.4004V24.2305C568 26.108 569.523 27.6299 571.4 27.6299H577.81C579.687 27.6299 581.21 26.108 581.21 24.2305V12.4004C581.21 10.5226 579.687 9 577.81 9H571.4ZM607.4 9C605.523 9 604 10.5226 604 12.4004V24.2305C604 26.108 605.523 27.6299 607.4 27.6299H613.81C615.687 27.6299 617.21 26.108 617.21 24.2305V12.4004C617.21 10.5226 615.687 9 613.81 9H607.4ZM638.4 9C636.523 9 635 10.5226 635 12.4004V24.2305C635 26.108 636.523 27.6299 638.4 27.6299H644.81C646.687 27.6299 648.21 26.108 648.21 24.2305V12.4004C648.21 10.5226 646.687 9 644.81 9H638.4ZM669.4 9C667.523 9 666 10.5226 666 12.4004V24.2305C666 26.108 667.523 27.6299 669.4 27.6299H675.81C677.687 27.6299 679.21 26.108 679.21 24.2305V12.4004C679.21 10.5226 677.687 9 675.81 9H669.4ZM700.4 9C698.523 9 697 10.5226 697 12.4004V24.2305C697 26.108 698.523 27.6299 700.4 27.6299H706.81C708.687 27.6299 710.21 26.108 710.21 24.2305V12.4004C710.21 10.5226 708.687 9 706.81 9H700.4ZM731.4 9C729.523 9 728 10.5226 728 12.4004V24.2305C728 26.108 729.523 27.6299 731.4 27.6299H737.81C739.687 27.6299 741.21 26.108 741.21 24.2305V12.4004C741.21 10.5226 739.687 9 737.81 9H731.4ZM762.4 9C760.523 9 759 10.5226 759 12.4004V24.2305C759 26.108 760.523 27.6299 762.4 27.6299H768.81C770.687 27.6299 772.21 26.108 772.21 24.2305V12.4004C772.21 10.5226 770.687 9 768.81 9H762.4ZM793.4 9C791.523 9 790 10.5226 790 12.4004V24.2305C790 26.108 791.523 27.6299 793.4 27.6299H799.81C801.687 27.6299 803.21 26.108 803.21 24.2305V12.4004C803.21 10.5226 801.687 9 799.81 9H793.4ZM824.4 9C822.523 9 821 10.5226 821 12.4004V24.2305C821 26.108 822.523 27.6299 824.4 27.6299H830.81C832.687 27.6299 834.21 26.108 834.21 24.2305V12.4004C834.21 10.5226 832.687 9 830.81 9H824.4ZM860.4 9C858.523 9 857 10.5226 857 12.4004V24.2305C857 26.108 858.523 27.6299 860.4 27.6299H866.81C868.687 27.6299 870.21 26.108 870.21 24.2305V12.4004C870.21 10.5226 868.687 9 866.81 9H860.4ZM891.4 9C889.523 9 888 10.5226 888 12.4004V24.2305C888 26.108 889.523 27.6299 891.4 27.6299H897.81C899.687 27.6299 901.21 26.108 901.21 24.2305V12.4004C901.21 10.5226 899.687 9 897.81 9H891.4ZM922.4 9C920.523 9 919 10.5226 919 12.4004V24.2305C919 26.108 920.523 27.6299 922.4 27.6299H928.81C930.687 27.6299 932.21 26.108 932.21 24.2305V12.4004C932.21 10.5226 930.687 9 928.81 9H922.4ZM953.4 9C951.523 9 950 10.5226 950 12.4004V24.2305C950 26.108 951.523 27.6299 953.4 27.6299H959.81C961.687 27.6299 963.21 26.108 963.21 24.2305V12.4004C963.21 10.5226 961.687 9 959.81 9H953.4ZM984.4 9C982.523 9 981 10.5226 981 12.4004V24.2305C981 26.108 982.523 27.6299 984.4 27.6299H990.81C992.687 27.6299 994.21 26.108 994.21 24.2305V12.4004C994.21 10.5226 992.687 9 990.81 9H984.4ZM1015.4 9C1013.52 9 1012 10.5226 1012 12.4004V24.2305C1012 26.108 1013.52 27.6299 1015.4 27.6299H1021.81C1023.69 27.6299 1025.21 26.108 1025.21 24.2305V12.4004C1025.21 10.5226 1023.69 9 1021.81 9H1015.4ZM1046.4 9C1044.52 9 1043 10.5226 1043 12.4004V24.2305C1043 26.108 1044.52 27.6299 1046.4 27.6299H1052.81C1054.69 27.6299 1056.21 26.108 1056.21 24.2305V12.4004C1056.21 10.5226 1054.69 9 1052.81 9H1046.4ZM1077.4 9C1075.52 9 1074 10.5226 1074 12.4004V24.2305C1074 26.108 1075.52 27.6299 1077.4 27.6299H1083.81C1085.69 27.6299 1087.21 26.108 1087.21 24.2305V12.4004C1087.21 10.5226 1085.69 9 1083.81 9H1077.4ZM1113.4 9C1111.52 9 1110 10.5226 1110 12.4004V24.2305C1110 26.108 1111.52 27.6299 1113.4 27.6299H1119.81C1121.69 27.6299 1123.21 26.108 1123.21 24.2305V12.4004C1123.21 10.5226 1121.69 9 1119.81 9H1113.4ZM1144.4 9C1142.52 9 1141 10.5226 1141 12.4004V24.2305C1141 26.108 1142.52 27.6299 1144.4 27.6299H1150.81C1152.69 27.6299 1154.21 26.108 1154.21 24.2305V12.4004C1154.21 10.5226 1152.69 9 1150.81 9H1144.4ZM1175.4 9C1173.52 9 1172 10.5226 1172 12.4004V24.2305C1172 26.108 1173.52 27.6299 1175.4 27.6299H1181.81C1183.69 27.6299 1185.21 26.108 1185.21 24.2305V12.4004C1185.21 10.5226 1183.69 9 1181.81 9H1175.4ZM1206.4 9C1204.52 9 1203 10.5226 1203 12.4004V24.2305C1203 26.108 1204.52 27.6299 1206.4 27.6299H1212.81C1214.69 27.6299 1216.21 26.108 1216.21 24.2305V12.4004C1216.21 10.5226 1214.69 9 1212.81 9H1206.4ZM1237.4 9C1235.52 9 1234 10.5226 1234 12.4004V24.2305C1234 26.108 1235.52 27.6299 1237.4 27.6299H1243.81C1245.69 27.6299 1247.21 26.108 1247.21 24.2305V12.4004C1247.21 10.5226 1245.69 9 1243.81 9H1237.4ZM1268.4 9C1266.52 9 1265 10.5226 1265 12.4004V24.2305C1265 26.108 1266.52 27.6299 1268.4 27.6299H1274.81C1276.69 27.6299 1278.21 26.108 1278.21 24.2305V12.4004C1278.21 10.5226 1276.69 9 1274.81 9H1268.4ZM1299.4 9C1297.52 9 1296 10.5226 1296 12.4004V24.2305C1296 26.108 1297.52 27.6299 1299.4 27.6299H1305.81C1307.69 27.6299 1309.21 26.108 1309.21 24.2305V12.4004C1309.21 10.5226 1307.69 9 1305.81 9H1299.4ZM1330.4 9C1328.52 9 1327 10.5226 1327 12.4004V24.2305C1327 26.108 1328.52 27.6299 1330.4 27.6299H1336.81C1338.69 27.6299 1340.21 26.108 1340.21 24.2305V12.4004C1340.21 10.5226 1338.69 9 1336.81 9H1330.4ZM1366.4 9C1364.52 9 1363 10.5226 1363 12.4004V24.2305C1363 26.108 1364.52 27.6299 1366.4 27.6299H1372.81C1374.69 27.6299 1376.21 26.108 1376.21 24.2305V12.4004C1376.21 10.5226 1374.69 9 1372.81 9H1366.4ZM1397.4 9C1395.52 9 1394 10.5226 1394 12.4004V24.2305C1394 26.108 1395.52 27.6299 1397.4 27.6299H1403.81C1405.69 27.6299 1407.21 26.108 1407.21 24.2305V12.4004C1407.21 10.5226 1405.69 9 1403.81 9H1397.4ZM1428.4 9C1426.52 9 1425 10.5226 1425 12.4004V24.2305C1425 26.108 1426.52 27.6299 1428.4 27.6299H1434.81C1436.69 27.6299 1438.21 26.108 1438.21 24.2305V12.4004C1438.21 10.5226 1436.69 9 1434.81 9H1428.4Z" fill="#692E19" fill-opacity="0.75"/>
<rect id="image 1" x="93" y="37" width="240" height="160" rx="14" fill="#D9D9D9"/>
<rect id="image 2" x="346" y="37" width="240" height="160" rx="14" fill="#D9D9D9"/>
<rect id="image 3" x="599" y="37" width="240" height="160" rx="14" fill="#D9D9D9"/>
<rect id="image 4" x="852" y="37" width="240" height="160" rx="14" fill="#D9D9D9"/>
<rect id="image 5" x="1105" y="37" width="240" height="160" rx="14" fill="#D9D9D9"/>
</g>
</svg>
